<svg width="32" height="32" viewBox="0 0 32 32" fill="none" xmlns="http://www.w3.org/2000/svg">
<path fill-rule="evenodd" clip-rule="evenodd" d="M3.42847 16.0754C3.42907 13.6748 4.11699 11.3246 5.41092 9.30257C6.70484 7.28054 8.55065 5.67125 10.7302 4.66496C12.9097 3.65867 15.3317 3.29745 17.71 3.624C20.0883 3.95056 22.3233 4.95123 24.151 6.50773C25.9786 8.06422 27.3223 10.1115 28.0234 12.4074C28.7244 14.7034 28.7534 17.152 28.1069 19.464C27.4605 21.7759 26.1656 23.8544 24.3753 25.4537C22.5851 27.053 20.3744 28.1064 18.0045 28.4892C17.9803 28.4943 17.9552 28.4935 17.9313 28.4869C17.902 28.476 17.8755 28.4588 17.8536 28.4366C17.8075 28.3887 17.7713 28.3321 17.7474 28.2701C17.7235 28.2081 17.7122 28.1419 17.7142 28.0754V24.7566C19.5747 24.363 21.2435 23.3422 22.441 21.865C23.6386 20.3878 24.2922 18.544 24.2925 16.6423V13.0972C24.2925 12.6425 24.1119 12.2065 23.7904 11.885C23.4689 11.5635 23.0328 11.3829 22.5782 11.3829H21.2845V8.61716C21.2845 8.1625 21.1039 7.72646 20.7824 7.40497C20.4609 7.08348 20.0248 6.90287 19.5702 6.90287C19.1155 6.90287 18.6795 7.08348 18.358 7.40497C18.0365 7.72646 17.8559 8.1625 17.8559 8.61716V11.3829H14.1439V8.61716C14.1439 8.1625 13.9633 7.72646 13.6418 7.40497C13.3203 7.08348 12.8843 6.90287 12.4296 6.90287C11.975 6.90287 11.5389 7.08348 11.2174 7.40497C10.8959 7.72646 10.7153 8.1625 10.7153 8.61716V11.3829H9.42619C8.97153 11.3829 8.5355 11.5635 8.21401 11.885C7.89251 12.2065 7.7119 12.6425 7.7119 13.0972V16.64C7.71202 18.5414 8.36534 20.3849 9.56246 21.8621C10.7596 23.3392 12.4278 24.3603 14.2879 24.7543V28.0754C14.2879 30.1943 16.0753 32.2674 18.5508 31.872C22.5122 31.22 26.0839 29.1029 28.5575 25.9406C31.031 22.7784 32.2258 18.802 31.9047 14.8001C31.5837 10.7982 29.7703 7.06313 26.8242 4.33567C23.8782 1.60822 20.0146 0.0876104 15.9999 0.0754411C12.4764 0.0738509 9.05095 1.23538 6.25514 3.37976C3.45933 5.52413 1.44955 8.53142 0.537724 11.9349C-0.374101 15.3383 -0.136971 18.9476 1.21231 22.2025C2.56159 25.4574 4.94756 28.1759 7.9999 29.936C8.19494 30.0504 8.41066 30.125 8.63466 30.1556C8.85866 30.1862 9.0865 30.1723 9.30507 30.1145C9.52364 30.0567 9.72862 29.9562 9.90821 29.8189C10.0878 29.6816 10.2385 29.5101 10.3515 29.3143C10.4645 29.1185 10.5377 28.9023 10.5669 28.6781C10.596 28.4539 10.5805 28.2262 10.5213 28.008C10.4621 27.7898 10.3603 27.5855 10.2217 27.4068C10.0832 27.2281 9.91072 27.0786 9.71419 26.9669C7.802 25.8637 6.21422 24.2761 5.11074 22.3641C4.00726 20.4521 3.42703 18.283 3.42847 16.0754Z" fill="currentColor"/>
</svg>